<svg width="884" height="887" viewBox="0 0 884 887" fill="none" xmlns="http://www.w3.org/2000/svg">
<g clip-path="url(#clip0_827_2189)">
<path d="M884 855H0V-29.34H884V855Z" fill="white"/>
<path d="M884.177 441.997C884.177 686.203 686.206 884.168 442.003 884.168C197.797 884.168 -0.171265 686.203 -0.171265 441.997C-0.171265 197.794 197.797 -0.176984 442.003 -0.176984C686.206 -0.176984 884.177 197.794 884.177 441.997Z" fill="#EDCF9A"/>
<path d="M602.133 889.029C492.401 889.029 382.672 889.029 272.941 889.029C272.917 888.439 273.155 887.986 273.652 887.662C275.562 886.683 277.639 886.884 279.67 886.884C384.915 886.871 490.159 886.871 595.407 886.884C597.435 886.884 599.515 886.677 601.427 887.655C601.926 887.979 602.159 888.439 602.133 889.029Z" fill="#C3BFB6"/>
<path d="M173.856 889.029C173.876 884.642 173.17 880.21 174.58 875.901C176.58 878.071 175.612 880.767 175.861 883.249C176.052 885.148 175.893 887.254 178.816 886.962C207.009 886.807 235.193 886.917 263.378 886.904C265.006 886.904 266.66 886.858 268.167 887.668C268.667 887.986 268.892 888.446 268.847 889.029C237.183 889.029 205.52 889.029 173.856 889.029Z" fill="#C3BFB6"/>
<path d="M710.155 888.109C710.181 888.414 710.206 888.725 710.226 889.029C675.286 889.029 640.346 889.029 605.412 889.029C605.367 888.439 605.6 887.992 606.099 887.675C607.602 886.858 609.248 886.904 610.875 886.904C642.296 886.884 673.718 886.871 705.139 886.904C705.82 886.904 706.5 886.936 707.174 887.046C708.262 887.124 709.325 887.305 710.155 888.109Z" fill="#C3BFB6"/>
<path d="M710.155 888.109C709.371 888.115 708.587 888.128 707.796 888.135C705.807 883.521 706.247 878.544 705.91 873.73C705.509 868.027 705.794 862.273 705.82 856.545C705.884 839.094 704.686 821.702 703.5 804.297C701.413 773.562 697.642 742.989 694.544 712.358C693.942 706.397 693.896 700.37 693.728 694.402C693.307 679.246 691.706 664.212 690.086 649.185C688.233 631.98 686.749 614.711 683.716 597.643C680.269 578.261 675.765 559.165 668.313 540.872C661.658 524.51 651.154 511.193 636.548 501.234C621.016 490.645 604.22 482.662 586.568 476.182C571.146 470.525 554.907 467.881 539.446 462.483C536.73 461.531 535.849 463.021 534.864 465.056C530.523 474.076 525.76 483.005 517.99 489.472C500.546 503.981 481.352 514.952 457.7 514.213C445.628 513.837 433.986 510.487 422.747 506.152C407.823 500.391 393.182 494.086 381.522 482.506C375.275 476.298 369.974 469.443 365.63 461.822C364.663 460.124 364.157 458.271 365.266 456.379C365.833 455.556 366.908 455.297 367.483 454.467C366.878 455.077 366.076 455.394 365.375 455.874C355.387 459.93 344.912 462.801 335.271 467.628C313.444 478.547 290.921 488.014 269.62 500.074C244.149 514.485 228.051 536.044 218.612 563.176C212.578 580.523 209.353 598.498 206.47 616.578C202.304 642.705 198.456 668.884 193.765 694.94C191.669 706.578 191.763 718.56 189.893 730.282C185.745 756.286 184.317 782.582 181.461 808.722C179.083 830.489 180.253 852.32 179.876 874.125C179.795 878.83 179.9 883.631 177.901 888.102C174.475 888.187 174.512 888.187 174.5 885.161C174.487 882.076 174.974 878.992 174.58 875.901C175.029 864.859 175.294 853.81 175.156 842.755C174.937 825.259 176.443 807.887 178.486 790.527C180.143 776.446 181.152 762.287 182.728 748.193C184.046 736.406 185.812 724.677 187.291 712.909C187.97 707.498 188.353 702.055 189.016 696.644C190.643 683.38 193.429 670.297 195.368 657.084C197.823 640.366 200.511 623.68 203.345 607.02C206.621 587.754 211.066 568.839 219.001 550.877C229.223 527.737 244.553 509.191 266.882 496.71C276.756 491.196 286.608 485.682 296.936 481.035C303.889 477.912 310.798 474.666 317.603 471.231C334.442 462.736 352.028 456.185 370.169 451.176C374.968 449.854 377.987 447.236 380.142 443.011C382.74 437.924 383.769 432.494 384.091 426.863C384.585 418.238 383.375 409.736 382.341 401.208C381.612 395.188 379.283 389.654 377.833 383.861C375.71 375.385 374.774 366.696 373.649 358.051C373.371 355.913 372.808 355.213 370.419 355.155C364.672 355.019 360.45 351.87 357.485 347.074C355.753 344.275 354.819 341.119 354.017 337.944C352.017 330.012 350.272 322.029 349.428 313.884C349.232 311.998 349.142 310.054 349.363 308.175C350.062 302.259 352.429 298.967 358.06 295.688C355.033 288.709 351.992 281.73 348.972 274.745C344.455 264.286 342.609 253.374 343.42 242.014C343.751 237.374 344.702 232.838 345.955 228.38C348.274 220.125 350.934 211.953 353.03 203.646C355.561 193.602 361.708 187.232 371.393 184.031C383.552 180.02 395.585 175.672 407.031 169.885C414.117 166.308 421.506 163.677 429.128 161.507C437.598 159.096 445.803 159.362 453.936 162.673C457.467 164.112 461.044 165.446 464.504 167.027C473.55 171.149 483.115 173.086 492.913 174.188C497.105 174.661 501.304 175.127 505.335 176.521C511.523 178.659 516.319 182.443 519.494 188.211C520.939 190.835 522.397 193.459 523.874 196.064C525.792 199.447 528.339 202.253 531.702 204.255C543.651 211.351 548.505 222.231 548.887 235.715C549.269 249.207 546.256 261.94 541.092 274.265C538.201 281.173 534.877 287.867 530.568 294.042C537.8 297.606 540.113 304.092 540.495 311.026C541.215 324.025 538.052 336.168 530.276 346.854C528.501 349.303 526.33 351.364 523.861 353.12C520.893 355.233 517.731 355.997 514.2 354.591C513.189 355.051 513.182 356.075 512.962 356.976C512.703 358.039 512.554 359.134 512.184 360.151C508.517 370.325 508.29 380.939 508.044 391.566C507.797 402.342 507.402 413.112 507.11 423.882C506.948 429.727 508.478 435.235 510.83 440.503C514.206 448.085 520.219 452.847 528.054 455.076C539.828 458.427 551.505 462.049 563.409 465.023C589.309 471.477 613.894 481.366 636.335 496.127C654.414 508.025 666.829 524.263 674.094 544.591C681.183 564.42 686.062 584.787 688.972 605.613C692.594 631.54 695.367 657.564 697.35 683.671C698.167 694.409 698.478 705.172 699.359 715.916C700.428 728.96 701.958 741.966 703.13 754.997C704.219 767.082 705.755 779.128 706.766 791.214C709.261 821.002 710.485 850.849 710.278 880.741C710.265 883.197 710.2 885.653 710.155 888.109Z" fill="#110F0D"/>
<path d="M177.901 888.102C179.338 870.548 178.722 852.961 178.793 835.381C178.839 823.808 179.804 812.299 181.095 800.804C181.853 794.058 182.174 787.261 182.967 780.515C183.759 773.769 184.007 766.972 185.111 760.259C185.662 756.915 185.745 753.48 185.96 750.111C186.42 742.886 188.235 735.887 188.974 728.727C189.559 723.057 190.624 717.419 190.952 711.736C191.61 700.312 193.28 689.063 195.466 677.846C197.307 668.392 198.951 658.892 200.21 649.321C201.678 638.156 203.821 627.075 205.456 615.93C206.896 606.112 208.537 596.341 210.748 586.666C214.188 571.626 218.643 556.923 226.016 543.269C231.677 532.791 238.343 523.019 247.148 514.88C253.779 508.757 261.283 503.813 269.021 499.205C282.275 491.319 296.183 484.742 310.24 478.437C315.586 476.039 320.765 473.272 326.004 470.641C338.084 464.57 350.765 460.008 363.512 455.601C364.426 455.29 365.322 455.012 366.294 455.044C366.546 455.226 366.629 455.401 366.541 455.582C366.454 455.757 366.368 455.841 366.281 455.841C364.912 457.863 365.585 459.768 366.688 461.582C369.727 466.598 372.985 471.451 376.84 475.89C387.066 487.671 399.788 495.693 414.163 501.532C425.05 505.958 436.109 509.489 447.631 511.874C460.195 514.472 472.3 513.111 484.087 508.627C494.442 504.687 503.961 499.082 512.871 492.479C519.332 487.697 524.244 481.547 528.371 474.743C530.911 470.557 533.542 466.378 534.961 461.641C535.434 460.079 536.121 460.189 537.34 460.585C542.517 462.276 547.61 464.453 552.924 465.419C565.871 467.771 578.183 472.145 590.476 476.499C608.937 483.038 626.336 491.825 641.927 503.761C654.984 513.759 664.147 526.81 670.102 542.142C676.485 558.569 680.807 575.546 684.001 592.835C686.269 605.134 687.876 617.517 689.049 629.965C689.846 638.48 691.194 646.936 692.069 655.445C692.834 662.884 693.222 670.355 693.896 677.801C694.894 688.914 695.082 700.072 695.614 711.211C695.918 717.562 697.065 723.88 697.739 730.217C698.413 736.568 698.944 742.938 699.599 749.288C700.279 755.911 701.011 762.52 701.763 769.13C702.132 772.37 702.469 775.636 702.677 778.869C703.208 787.144 704.206 795.38 704.66 803.675C705.223 813.855 705.722 824.048 706.364 834.228C706.882 842.406 706.954 850.564 706.941 858.729C706.928 868.546 707.394 878.337 707.796 888.135C679.096 888.161 650.396 888.18 621.703 888.219C616.266 888.232 610.829 888.349 605.393 888.42L605.419 888.07C603.598 884.636 605.069 881.117 605.289 877.676C606.047 865.96 605.898 854.264 605.321 842.542C604.803 831.947 603.74 821.404 604.634 810.699C605.529 800 605.276 789.192 604.466 778.416C603.351 763.512 604.285 748.608 607.492 734.066C612.67 710.551 614.873 686.652 617.86 662.845C618.586 657.039 618.301 651.142 618.586 645.29C619.072 635.486 619.908 625.721 620.569 615.93C617.264 645.258 616.285 674.807 612.229 704.064C610.764 714.62 608.036 724.923 606.054 735.375C604.349 744.376 603.28 753.409 603.358 762.598C603.481 778.558 603.799 794.531 603.28 810.479C602.749 826.724 604.336 842.846 604.822 859.027C605.088 867.982 604.265 876.996 603.183 885.932C603.086 886.761 602.729 887.493 602.127 888.096L602.146 888.439C600.52 888.362 598.887 888.226 597.26 888.226C490.774 888.213 384.297 888.213 277.816 888.219C276.186 888.219 274.555 888.355 272.925 888.42L272.95 888.07C271.741 886.599 272.3 884.94 272.521 883.359C276.564 854.316 280.823 825.266 282.757 796.028C284.128 775.318 287.308 754.835 288.738 734.17C289.672 720.666 288.369 707.2 286.888 693.774C284.438 671.567 281.258 649.457 278.032 627.354C281.468 651.77 284.298 676.252 287.059 700.746C289.388 721.405 287.713 741.855 284.543 762.267C282.676 774.281 282.306 786.412 281.5 798.516C280.748 809.811 279.117 821.022 277.542 832.232C275.167 849.112 273.972 866.142 271.006 882.944C270.674 884.824 270.653 886.794 268.85 888.031L268.864 888.401C267.237 888.336 265.61 888.219 263.983 888.219C236.782 888.206 209.583 888.213 182.382 888.206C180.888 888.206 179.394 888.135 177.901 888.102Z" fill="#D49114"/>
<path d="M268.85 888.031C269.937 881.059 271.087 874.093 272.092 867.107C273.309 858.638 273.883 850.091 275.152 841.621C276.258 834.228 276.969 826.782 277.889 819.369C278.591 813.706 279.428 808.062 280.055 802.398C280.61 797.389 280.723 792.335 280.916 787.319C281.315 776.958 282.728 766.752 284.164 756.52C286.267 741.538 287.878 726.478 286.682 711.341C285.933 701.874 285.063 692.4 283.75 682.972C282.326 672.746 281.457 662.449 280.22 652.198C279.341 644.921 278.164 637.676 277.302 630.399C277.004 627.866 277.255 625.274 277.255 622.293C279.336 624.282 279.038 626.738 279.373 628.818C281.123 639.679 282.728 650.559 284.236 661.458C285.259 668.858 285.888 676.317 286.964 683.704C288.374 693.398 289.22 703.157 289.908 712.896C290.491 721.158 290.526 729.485 289.568 737.805C288.869 743.871 288.442 749.981 287.687 756.053C286.982 761.717 286.183 767.367 285.575 773.037C285.082 777.631 284.563 782.245 284.496 786.859C284.357 796.54 283.252 806.118 282.157 815.714C281.293 823.277 280.581 830.852 279.494 838.388C277.67 851.024 276.82 863.783 274.777 876.4C274.148 880.281 273.487 884.169 272.95 888.07C271.581 888.284 270.214 888.297 268.85 888.031Z" fill="#110F0D"/>
<path d="M602.127 888.096C602.619 880.365 603.137 872.635 603.585 864.898C603.714 862.727 603.786 860.53 603.624 858.359C602.917 848.588 602.652 838.79 601.906 829.037C601.53 824.1 602.042 819.285 602.055 814.412C602.081 797.506 602.178 780.593 602.01 763.68C601.893 752.45 603.461 741.454 605.691 730.509C607.427 721.994 609.384 713.512 610.823 704.952C611.834 698.932 612.099 692.795 612.773 686.717C613.402 681.047 614.153 675.397 614.795 669.727C615.255 665.683 615.974 661.62 615.955 657.57C615.91 650.066 616.571 642.601 617.018 635.136C617.419 628.378 618.54 621.645 619.538 614.932C619.746 613.5 619.849 611.646 621.735 610.817C621.735 614.044 622.098 617.115 621.67 620.083C620.284 629.661 620.471 639.342 619.506 648.939C619.247 651.511 619.383 654.116 619.37 656.708C619.331 663.94 618.171 671.048 617.206 678.189C616.473 683.568 615.715 688.966 615.365 694.376C614.73 704.045 612.812 713.492 610.92 722.947C608.736 733.872 606.682 744.778 605.989 755.956C605.555 762.915 605.133 769.881 605.645 776.763C606.39 786.853 605.982 796.916 606.222 806.992C606.293 810.019 605.568 812.941 605.503 815.928C605.276 825.467 606.39 834.947 606.792 844.447C607.265 855.592 607.699 866.77 606.429 877.929C606.047 881.299 605.846 884.701 605.418 888.07C604.317 888.077 603.222 888.083 602.127 888.096Z" fill="#110F0D"/>
<path d="M514.264 299.971C514.128 315.517 513.61 331.049 512.132 346.53C511.096 357.326 507.817 367.584 504.292 377.764C502.464 383.038 500.507 388.274 498.064 393.303C489.252 411.447 475.19 422.722 455.128 426.325C440.063 429.033 425.847 427.025 412.451 419.508C408.046 417.033 403.789 414.356 399.713 411.362C388.512 403.126 381.681 392.298 379.45 378.502C376.336 359.257 372.988 340.037 372.367 320.5C371.756 301.3 373.871 282.456 379.339 263.942C383.02 251.468 390.731 244.25 403.495 242.053C417.609 239.63 431.719 237.361 446.088 236.992C454.007 236.785 461.744 234.957 469.533 233.616C475.456 232.592 481.398 232.113 487.437 232.975C497.261 234.368 504.065 239.487 507.519 248.773C510.227 256.076 511.957 263.651 512.884 271.388C514.018 280.881 514.485 290.413 514.264 299.971Z" fill="#FFEED1"/>
<path d="M516.28 314.37C516.072 308.661 517.485 303.017 516.973 297.282C516.234 289.039 516.169 280.758 515.496 272.503C514.796 263.884 512.936 255.603 510.15 247.503C507.143 238.761 500.993 233.098 492.057 230.81C485.798 229.21 479.383 229.404 473.032 230.493C465.159 231.847 457.318 233.422 449.419 234.633C446.484 235.081 443.418 234.919 440.43 234.757C432.903 234.335 425.514 235.58 418.134 236.61C412.245 237.433 406.313 238.178 400.538 239.714C397.105 240.627 393.856 242.021 390.649 243.511C385.262 246.019 381.957 250.594 379.718 255.732C375.803 264.727 373.611 274.265 371.962 283.933C370.244 294.003 369.537 304.131 369.563 314.331C369.565 314.83 369.716 315.374 369.034 316.029C367.35 313.476 366.658 310.534 365.72 307.831C361.745 296.368 356.395 285.495 351.67 274.356C347.076 263.521 344.996 252.24 345.913 240.504C346.305 235.502 347.844 230.661 349.237 225.847C351.614 217.617 354.23 209.465 356.53 201.216C358.508 194.127 363.46 189.96 369.882 187.381C376.568 184.699 383.447 182.495 390.2 179.975C395.809 177.882 401.337 175.575 406.674 172.84C415.56 168.285 424.868 164.824 434.691 163.075C440.775 161.993 446.872 162.517 452.711 164.993C459.469 167.857 466.163 170.916 473.181 173.125C479.149 175.004 485.299 175.976 491.513 176.715C497.008 177.376 502.561 177.901 507.655 180.551C512.158 182.897 515.625 186.111 517.854 190.68C518.807 192.643 519.915 194.522 520.874 196.479C523.699 202.246 528.857 205.616 533.815 209.212C540.683 214.208 544.377 221.038 545.686 229.359C546.178 232.463 546.45 235.541 546.463 238.677C546.528 250.859 543.282 262.264 538.636 273.39C535.37 281.212 531.028 288.372 526.602 295.578C522.935 301.539 519.092 307.572 516.863 314.35L516.578 314.616L516.28 314.37Z" fill="#1F1612"/>
<path d="M385.859 401.934C396.7 415.056 410.458 423.752 426.782 428.256C441.231 432.241 455.491 430.459 469.326 425.359C478.754 421.88 486.225 415.529 492.407 407.649C497.851 400.703 501.531 392.823 504.719 384.678C506.741 384.872 505.678 386.214 505.639 387.173C505.14 399.025 504.544 410.877 504.181 422.735C503.968 429.928 505.426 436.848 508.763 443.277C512.042 449.595 517.154 453.923 523.673 456.658C524.425 456.969 525.203 457.228 525.974 457.5C532.888 459.924 532.83 459.891 529.415 466.65C522.896 479.565 513.513 489.667 500.708 496.568C493.269 500.573 485.94 504.772 477.795 507.279C465.794 510.973 453.903 510.066 441.864 507.208C428.511 504.033 415.809 499.141 403.598 493.101C389.062 485.908 377.894 474.834 369.569 460.922C367.763 457.908 367.778 457.779 370.906 455.984C380.625 450.398 384.985 441.702 386.155 430.854C387.146 421.659 386.036 412.62 385.014 403.541C384.797 402.744 384.277 401.785 385.859 401.934Z" fill="#FFEED1"/>
<path d="M537.534 315.698C537.353 323.39 535.882 330.81 532.622 337.814C530.225 342.96 526.9 347.372 522.073 350.515C520.446 351.572 518.755 352.44 516.733 352.103C515.23 351.857 514.128 351.176 514.452 349.394C516.072 340.556 514.608 331.451 516.895 322.638C519.111 314.098 522.883 306.348 527.665 299.006C528.65 297.496 529.784 297.502 531.112 298.358C532.771 299.42 533.84 301.021 534.767 302.686C537.009 306.723 537.748 311.11 537.534 315.698Z" fill="#FFEED1"/>
<path d="M351.545 311.37C351.452 309.011 351.787 306.717 352.474 304.494C353.129 302.375 354.241 300.516 356.062 299.161C358.456 297.379 359.053 297.476 360.135 300.224C363.276 308.194 366.347 316.191 369.423 324.187C369.913 325.464 370.111 326.798 370.165 328.185C370.458 335.676 371.398 343.102 372.474 350.515C372.818 352.887 372.578 353.198 370.225 352.939C366.242 352.511 363.017 350.645 360.541 347.496C359.438 346.089 358.585 344.534 358.008 342.856C354.506 332.63 352.649 322.074 351.545 311.37Z" fill="#FFEED1"/>
<path d="M505.639 387.173C505.115 386.421 505.86 385.203 504.719 384.678C504.674 383.537 505.089 382.643 506.132 381.943C506.482 383.822 506.527 385.54 505.639 387.173Z" fill="#796C63"/>
<path d="M366.281 455.841C366.277 455.576 366.281 455.31 366.294 455.044C366.929 454.182 367.767 453.709 369.208 453.625C368.638 455.18 367.223 455.232 366.281 455.841Z" fill="#252623"/>
<path d="M385.859 401.934C385.15 402.245 385.34 403.029 385.014 403.541C384.792 403.075 384.457 402.627 384.378 402.141C384.289 401.591 383.867 400.696 384.741 400.56C385.426 400.457 385.696 401.286 385.859 401.934Z" fill="#857A68"/>
<path d="M516.28 314.37C516.474 314.337 516.668 314.331 516.863 314.35C516.792 314.759 517.232 315.355 516.435 315.484C516.383 315.109 516.331 314.739 516.28 314.37Z" fill="#4C5254"/>
<path d="M369.808 317.785C369.8 317.875 369.825 318.012 369.776 318.044C369.694 318.102 369.542 318.154 369.462 318.115C369.127 317.953 369.142 317.778 369.501 317.681C369.587 317.655 369.705 317.746 369.808 317.785Z" fill="#222423"/>
</g>
<defs>
<clipPath id="clip0_827_2189">
<rect width="884" height="887" rx="442" fill="white"/>
</clipPath>
</defs>
</svg>
