<svg width="2528" height="2989" viewBox="0 0 2528 2989" fill="none" xmlns="http://www.w3.org/2000/svg">
<path d="M2368.89 2459.7C2875.69 1528.9 2045.89 1075.2 1561.39 1075.2C1608.89 747.195 1816.89 713.695 2033.39 713.695C2188.99 694.495 2275.39 520.195 2275.39 420.195C2299.39 366.195 2272.89 345.695 2248.39 341.195C2127.19 327.195 2085.5 318.5 2007 292.5C1886.5 189 1945.39 132.195 1798.39 58.1973C1275.19 -167.803 966.887 321.695 936.386 548.697C-402.414 967.497 -59.1128 2290.69 455.887 2681.7C1256.69 3289.7 2078.89 2874.7 2368.89 2459.7Z" fill="black"/>
<path d="M1187.39 831.695L1023.89 642.195L1008.39 831.695C1008.79 838.095 1004.39 841.695 999.887 842.195C895.887 842.195 854.387 869.695 804.887 909.695C768.487 935.295 738.053 1009.36 727.387 1043.2C713.387 1056.8 662.887 1087.53 639.387 1101.2C617.787 1121.6 626.72 1149.36 633.887 1160.7C662.287 1313.9 782.387 1297.2 868.887 1302.7C1010.89 1348.7 1042.44 1555.5 1056.39 1651.7C1107.19 2002.1 1420.22 2212.7 1570.39 2274.2C1994.39 2449.8 2275.39 2210.7 2300.89 2054.7C2351.69 1869.1 2275 1650 2163.5 1551C2079 1475.97 1914.17 1369 1831 1338C1639 1266.43 1516 1239.72 1464.5 1233C1361 1219.5 1349 1160.7 1319 1101.2C1293.4 1020.8 1245.39 885.029 1187.39 831.695Z" fill="white"/>
<path d="M836.387 1704.2C868.887 1920.7 1133.89 2581.2 1974.39 2541.2C1137.39 3233.7 89.3875 2256.2 836.387 1704.2Z" fill="white"/>
</svg>
