<svg width="508" height="600" viewBox="0 0 508 600" fill="none" xmlns="http://www.w3.org/2000/svg">
<path fill-rule="evenodd" clip-rule="evenodd" d="M475.625 493.859C577.381 306.972 410.773 215.878 313.495 215.878C323.033 150.022 364.795 143.296 408.264 143.296C439.505 139.441 456.853 104.445 456.853 84.3669C461.671 73.5247 456.351 69.4088 451.432 68.5052C427.097 65.6943 418.727 63.9485 402.966 58.7282C392.278 49.5485 388.619 42.1984 385.32 35.5719C381.151 27.1976 377.557 19.9791 361.08 11.6849C256.032 -33.6915 194.132 64.59 188.008 110.168C-80.7967 194.254 -11.8687 459.925 91.533 538.432C252.318 660.506 417.399 577.182 475.625 493.859ZM205.576 128.94L238.404 166.988C250.049 177.696 259.689 204.955 264.829 221.098C265.647 222.72 266.398 224.34 267.138 225.934C271.845 236.083 276.083 245.219 294.043 247.562C304.383 248.911 329.079 254.275 367.628 268.644C384.327 274.868 417.422 296.346 434.388 311.41C456.775 331.287 472.172 375.277 461.973 412.542C456.853 443.864 400.433 491.87 315.302 456.613C285.152 444.265 222.301 401.981 212.101 331.628C209.301 312.314 202.966 270.791 174.455 261.555C172.395 261.424 170.239 261.356 168.03 261.286C151.625 260.767 132.297 260.154 127.272 233.045C125.833 230.769 124.039 225.194 128.376 221.098C133.095 218.354 143.234 212.184 146.045 209.453C148.186 202.66 154.297 187.789 161.605 182.649C171.544 174.618 179.876 169.096 200.757 169.096C201.661 168.996 202.544 168.273 202.464 166.988L205.576 128.94ZM167.93 342.169C174.455 385.638 227.662 518.253 396.418 510.222C228.365 649.262 17.9472 452.999 167.93 342.169Z" fill="#C57E00"/>
</svg>
