<svg width="508" height="600" viewBox="0 0 508 600" fill="none" xmlns="http://www.w3.org/2000/svg">
<path d="M475.625 493.859C577.381 306.972 410.773 215.878 313.495 215.878C323.033 150.022 364.795 143.296 408.264 143.296C439.505 139.441 456.853 104.445 456.853 84.3669C461.671 73.5247 456.351 69.4088 451.432 68.5052C427.097 65.6943 418.727 63.9485 402.966 58.7282C378.772 37.9474 390.595 26.5422 361.08 11.6849C256.032 -33.6915 194.132 64.59 188.008 110.168C-80.7967 194.254 -11.8687 459.925 91.533 538.432C252.318 660.506 417.399 577.182 475.625 493.859Z" fill="white"/>
<path d="M238.404 166.988L205.576 128.94L202.464 166.988C202.544 168.273 201.661 168.996 200.757 169.096C179.876 169.096 171.544 174.618 161.605 182.649C154.297 187.789 148.186 202.66 146.045 209.453C143.234 212.184 133.095 218.354 128.376 221.098C124.039 225.194 125.833 230.769 127.272 233.045C132.974 263.804 157.088 260.451 174.455 261.555C202.966 270.791 209.301 312.314 212.101 331.628C222.301 401.981 285.152 444.265 315.302 456.613C400.433 491.87 456.853 443.864 461.973 412.542C472.172 375.277 456.775 331.287 434.388 311.41C417.422 296.346 384.327 274.868 367.628 268.644C329.079 254.275 304.383 248.911 294.043 247.562C273.262 244.851 270.852 233.045 264.829 221.098C259.689 204.955 250.049 177.696 238.404 166.988Z" fill="#2C2E2A"/>
<path d="M167.93 342.169C174.455 385.638 227.662 518.253 396.418 510.222C228.365 649.262 17.9472 452.999 167.93 342.169Z" fill="#2C2E2A"/>
</svg>
